<?xml version="1.0" ?><svg viewBox="0 0 441.27 429.54" xmlns="http://www.w3.org/2000/svg"><title/><g data-name="Layer 2" id="Layer_2"><g data-name="chicken, fried, crispy, cooked, food, meal, fast, restaurant, junk, fastfood" id="chicken_fried_crispy_cooked_food_meal_fast_restaurant_junk_fastfood"><path d="M410.19,329.51a33,33,0,0,0-24.7,8.86l-8.36-7.54a5.39,5.39,0,1,0-7.22,8L382.27,350a5.32,5.32,0,0,0,4.13,1.36,5.39,5.39,0,0,0,3.8-2.13,22.37,22.37,0,1,1,16.5,35.72l-.34,0-.58-.07a5.39,5.39,0,0,0-5.82,6.56,22.38,22.38,0,1,1-40.15-7.74,5.41,5.41,0,0,0-.8-7.07L337.51,357c.56-.61,1.09-1.23,1.61-1.89l19.51-24.59A38.62,38.62,0,0,0,355,278.25l-34.09-32.41A105.36,105.36,0,0,1,288,173.66l-.05-1.15a95.84,95.84,0,0,1,.46-13A144.68,144.68,0,0,0,270,72.67,5.39,5.39,0,1,0,260.66,78a133.76,133.76,0,0,1,17.69,66.52,135.69,135.69,0,0,1-.71,13.8,104.66,104.66,0,0,0-.51,14.53l.05,1.23a116.07,116.07,0,0,0,36.27,79.53l34.09,32.41a27.89,27.89,0,0,1,2.64,37.73l-19.5,24.6A28.1,28.1,0,0,1,292.74,354l-57.82-40.11-.16-.1c-38.93-25-85.51-33.59-103.74-36.11l-.19,0c-1.5-.15-3.14-.35-5-.62a133.53,133.53,0,0,1-115-136.86c2.3-71.94,62.76-130,134.85-129.39a133.34,133.34,0,0,1,72,21.73,5.39,5.39,0,1,0,5.9-9,144.57,144.57,0,1,0-99.28,264.22c2,.28,3.72.49,5.33.66,13.78,1.91,61.14,10,99.21,34.44l57.75,40.05a38.58,38.58,0,0,0,22.06,6.89,39.09,39.09,0,0,0,20.5-5.8l19.35,17.64a33.12,33.12,0,0,0,27.57,47.89q1.07.06,2.1.06a33.19,33.19,0,0,0,33.07-31.07c.06-1,.08-1.91.06-2.86a33.16,33.16,0,0,0-1.12-66.1Z"/><path d="M241.82,52.69a5.39,5.39,0,1,0,7.83-7.4c-.74-.79-1.5-1.58-2.27-2.35a5.39,5.39,0,0,0-7.67,7.58C240.42,51.23,241.13,52,241.82,52.69Z"/><path d="M135.61,74.78a5.39,5.39,0,0,0,0,10.78h1.64a5.39,5.39,0,0,0,0-10.78Z"/><path d="M173,62.38h-1.63a5.39,5.39,0,0,0,0,10.78H173a5.39,5.39,0,0,0,0-10.78Z"/><path d="M183,110.07h1.64a5.39,5.39,0,0,0,0-10.78H183a5.39,5.39,0,1,0,0,10.78Z"/></g></g></svg>